<svg xmlns="http://www.w3.org/2000/svg" xmlns:xlink="http://www.w3.org/1999/xlink" width="150" zoomAndPan="magnify" viewBox="0 0 112.5 37.5" height="50" preserveAspectRatio="xMidYMid meet" version="1.0"><defs><g/><clipPath id="f95332dd57"><path d="M 4.195312 3.699219 L 29.359375 3.699219 L 29.359375 33.304688 L 4.195312 33.304688 Z M 4.195312 3.699219 " clip-rule="nonzero"/></clipPath><clipPath id="8c79e16d45"><path d="M 0.046875 1 L 4 1 L 4 12 L 0.046875 12 Z M 0.046875 1 " clip-rule="nonzero"/></clipPath><clipPath id="49af86a57f"><rect x="0" width="78" y="0" height="15"/></clipPath><clipPath id="7a192c9db5"><path d="M 0.308594 2 L 3 2 L 3 8 L 0.308594 8 Z M 0.308594 2 " clip-rule="nonzero"/></clipPath><clipPath id="88794d46cd"><rect x="0" width="72" y="0" height="9"/></clipPath></defs><g clip-path="url(#f95332dd57)"><path fill="#e5c3a6" d="M 25.816406 24.136719 L 16.996094 4.898438 C 17.003906 4.898438 17.003906 4.898438 17.007812 4.898438 C 19.683594 4.898438 22.199219 5.777344 24.277344 7.445312 C 26.296875 9.0625 27.738281 11.335938 28.332031 13.839844 L 29.484375 13.570312 C 28.832031 10.808594 27.25 8.304688 25.019531 6.523438 C 22.757812 4.71875 19.914062 3.71875 17.007812 3.71875 C 9.941406 3.71875 4.195312 9.464844 4.195312 16.53125 C 4.195312 19.746094 5.382812 22.691406 7.347656 24.941406 L 16.203125 5.996094 L 17.589844 9.027344 L 17.269531 9.71875 L 6.074219 33.289062 L 7.496094 33.289062 L 10.292969 27.4375 C 12.25 28.644531 14.546875 29.347656 17.007812 29.347656 C 19.792969 29.347656 22.433594 28.476562 24.660156 26.816406 C 26.84375 25.191406 28.425781 22.972656 29.238281 20.386719 L 28.109375 20.03125 C 27.636719 21.539062 26.847656 22.933594 25.816406 24.136719 Z M 7.105469 22.625 C 6.011719 20.855469 5.375 18.765625 5.375 16.53125 C 5.375 10.675781 9.722656 5.820312 15.359375 5.015625 Z M 23.957031 25.875 C 21.9375 27.378906 19.539062 28.171875 17.015625 28.171875 C 14.734375 28.171875 12.613281 27.511719 10.820312 26.378906 L 18.246094 10.433594 L 24.945312 25.050781 C 24.625 25.339844 24.296875 25.613281 23.957031 25.875 Z M 23.957031 25.875 " fill-opacity="1" fill-rule="nonzero"/></g><g transform="matrix(1, 0, 0, 1, 31, 8)"><g clip-path="url(#49af86a57f)"><g clip-path="url(#8c79e16d45)"><g fill="#e5c3a6" fill-opacity="1"><g transform="translate(0.288994, 11.427829)"><g><path d="M 1.484375 -9.578125 L 2.375 -9.578125 L 3.625 0 L 2.859375 0 L 2.578125 -2.296875 L 1.1875 -2.296875 L 0.890625 0 L 0.140625 0 Z M 2.484375 -3.015625 L 2.125 -5.96875 C 2.070312 -6.320312 2.03125 -6.6875 2 -7.0625 C 1.96875 -7.445312 1.945312 -7.800781 1.9375 -8.125 L 1.875 -8.125 C 1.84375 -7.800781 1.804688 -7.453125 1.765625 -7.078125 C 1.734375 -6.703125 1.695312 -6.335938 1.65625 -5.984375 L 1.265625 -3.015625 Z M 2.484375 -3.015625 "/></g></g></g></g><g fill="#e5c3a6" fill-opacity="1"><g transform="translate(5.284214, 11.427829)"><g><path d="M 0.84375 -9.578125 L 1.71875 -9.578125 L 2.4375 -4.671875 C 2.46875 -4.453125 2.5 -4.222656 2.53125 -3.984375 C 2.570312 -3.742188 2.609375 -3.503906 2.640625 -3.265625 L 2.6875 -3.265625 C 2.71875 -3.503906 2.75 -3.742188 2.78125 -3.984375 C 2.8125 -4.222656 2.847656 -4.445312 2.890625 -4.65625 L 3.703125 -9.578125 L 4.578125 -9.578125 L 4.796875 0 L 4 0 L 3.96875 -4.484375 C 3.96875 -4.765625 3.96875 -5.082031 3.96875 -5.4375 C 3.96875 -5.789062 3.96875 -6.128906 3.96875 -6.453125 C 3.96875 -6.773438 3.96875 -7.054688 3.96875 -7.296875 C 3.976562 -7.546875 3.984375 -7.710938 3.984375 -7.796875 L 3.9375 -7.796875 L 2.953125 -1.8125 L 2.28125 -1.8125 L 1.421875 -7.796875 L 1.375 -7.796875 C 1.375 -7.210938 1.375 -6.628906 1.375 -6.046875 C 1.375 -5.472656 1.367188 -4.894531 1.359375 -4.3125 L 1.28125 0 L 0.484375 0 Z M 0.84375 -9.578125 "/></g></g></g><g fill="#e5c3a6" fill-opacity="1"><g transform="translate(11.798426, 11.427829)"><g><path d="M 0.6875 -9.578125 L 1.453125 -9.578125 L 1.453125 0 L 0.6875 0 Z M 0.6875 -9.578125 "/></g></g></g><g fill="#e5c3a6" fill-opacity="1"><g transform="translate(15.165178, 11.427829)"><g><path d="M 0.6875 -9.578125 L 1.453125 -9.578125 L 1.453125 -0.71875 L 2.890625 -0.71875 L 2.890625 0 L 0.6875 0 Z M 0.6875 -9.578125 "/></g></g></g><g fill="#e5c3a6" fill-opacity="1"><g transform="translate(19.284583, 11.427829)"><g><path d="M 1.046875 -8.875 L 0.0625 -8.875 L 0.0625 -9.578125 L 2.78125 -9.578125 L 2.78125 -8.875 L 1.8125 -8.875 L 1.8125 0 L 1.046875 0 Z M 1.046875 -8.875 "/></g></g></g><g fill="#e5c3a6" fill-opacity="1"><g transform="translate(23.362935, 11.427829)"><g><path d="M 2.015625 0.140625 C 1.554688 0.140625 1.207031 -0.0078125 0.96875 -0.3125 C 0.726562 -0.625 0.609375 -1.078125 0.609375 -1.671875 L 0.609375 -7.890625 C 0.609375 -8.484375 0.726562 -8.9375 0.96875 -9.25 C 1.21875 -9.5625 1.570312 -9.71875 2.03125 -9.71875 C 2.96875 -9.71875 3.4375 -9.109375 3.4375 -7.890625 L 3.4375 -1.671875 C 3.4375 -1.097656 3.3125 -0.648438 3.0625 -0.328125 C 2.820312 -0.015625 2.472656 0.140625 2.015625 0.140625 Z M 2.03125 -0.546875 C 2.257812 -0.546875 2.421875 -0.632812 2.515625 -0.8125 C 2.617188 -0.988281 2.671875 -1.273438 2.671875 -1.671875 L 2.671875 -7.890625 C 2.671875 -8.648438 2.457031 -9.03125 2.03125 -9.03125 C 1.800781 -9.03125 1.632812 -8.941406 1.53125 -8.765625 C 1.425781 -8.585938 1.375 -8.296875 1.375 -7.890625 L 1.375 -1.671875 C 1.375 -1.273438 1.425781 -0.988281 1.53125 -0.8125 C 1.632812 -0.632812 1.800781 -0.546875 2.03125 -0.546875 Z M 2.03125 -0.546875 "/></g></g></g><g fill="#e5c3a6" fill-opacity="1"><g transform="translate(28.645532, 11.427829)"><g><path d="M 0.6875 -9.578125 L 1.59375 -9.578125 L 3.3125 -1.828125 L 3.359375 -1.828125 C 3.335938 -2.117188 3.320312 -2.429688 3.3125 -2.765625 C 3.300781 -3.109375 3.285156 -3.445312 3.265625 -3.78125 C 3.253906 -4.125 3.25 -4.457031 3.25 -4.78125 C 3.25 -5.101562 3.25 -5.40625 3.25 -5.6875 L 3.25 -9.578125 L 3.96875 -9.578125 L 3.96875 0 L 3.0625 0 L 1.34375 -7.71875 L 1.296875 -7.71875 C 1.304688 -7.414062 1.316406 -7.097656 1.328125 -6.765625 C 1.347656 -6.429688 1.363281 -6.097656 1.375 -5.765625 C 1.382812 -5.429688 1.390625 -5.101562 1.390625 -4.78125 C 1.398438 -4.457031 1.40625 -4.160156 1.40625 -3.890625 L 1.40625 0 L 0.6875 0 Z M 0.6875 -9.578125 "/></g></g></g><g fill="#e5c3a6" fill-opacity="1"><g transform="translate(34.530251, 11.427829)"><g/></g></g><g fill="#e5c3a6" fill-opacity="1"><g transform="translate(37.678048, 11.427829)"><g><path d="M 1.953125 0.140625 C 1.515625 0.140625 1.179688 -0.0078125 0.953125 -0.3125 C 0.722656 -0.625 0.609375 -1.078125 0.609375 -1.671875 L 0.609375 -7.890625 C 0.609375 -8.484375 0.722656 -8.9375 0.953125 -9.25 C 1.191406 -9.5625 1.523438 -9.71875 1.953125 -9.71875 C 2.390625 -9.71875 2.722656 -9.5625 2.953125 -9.25 C 3.179688 -8.9375 3.296875 -8.484375 3.296875 -7.890625 L 3.296875 -6.734375 L 2.53125 -6.734375 L 2.53125 -7.890625 C 2.53125 -8.296875 2.484375 -8.585938 2.390625 -8.765625 C 2.304688 -8.941406 2.160156 -9.03125 1.953125 -9.03125 C 1.753906 -9.03125 1.609375 -8.941406 1.515625 -8.765625 C 1.421875 -8.585938 1.375 -8.296875 1.375 -7.890625 L 1.375 -1.671875 C 1.375 -0.921875 1.566406 -0.546875 1.953125 -0.546875 C 2.160156 -0.546875 2.304688 -0.632812 2.390625 -0.8125 C 2.484375 -0.988281 2.53125 -1.273438 2.53125 -1.671875 L 2.53125 -3.125 L 3.296875 -3.125 L 3.296875 -1.671875 C 3.296875 -1.085938 3.175781 -0.640625 2.9375 -0.328125 C 2.707031 -0.015625 2.378906 0.140625 1.953125 0.140625 Z M 1.953125 0.140625 "/></g></g></g><g fill="#e5c3a6" fill-opacity="1"><g transform="translate(42.550107, 11.427829)"><g><path d="M 1.484375 -9.578125 L 2.375 -9.578125 L 3.625 0 L 2.859375 0 L 2.578125 -2.296875 L 1.1875 -2.296875 L 0.890625 0 L 0.140625 0 Z M 2.484375 -3.015625 L 2.125 -5.96875 C 2.070312 -6.320312 2.03125 -6.6875 2 -7.0625 C 1.96875 -7.445312 1.945312 -7.800781 1.9375 -8.125 L 1.875 -8.125 C 1.84375 -7.800781 1.804688 -7.453125 1.765625 -7.078125 C 1.734375 -6.703125 1.695312 -6.335938 1.65625 -5.984375 L 1.265625 -3.015625 Z M 2.484375 -3.015625 "/></g></g></g><g fill="#e5c3a6" fill-opacity="1"><g transform="translate(47.545328, 11.427829)"><g><path d="M 0.6875 -9.578125 L 1.71875 -9.578125 C 2.3125 -9.578125 2.742188 -9.414062 3.015625 -9.09375 C 3.296875 -8.769531 3.4375 -8.257812 3.4375 -7.5625 L 3.4375 -6.125 C 3.4375 -5.238281 3.207031 -4.648438 2.75 -4.359375 L 3.59375 0 L 2.78125 0 L 2 -4.125 L 1.453125 -4.125 L 1.453125 0 L 0.6875 0 Z M 1.71875 -4.796875 C 2.050781 -4.796875 2.289062 -4.898438 2.4375 -5.109375 C 2.59375 -5.316406 2.671875 -5.65625 2.671875 -6.125 L 2.671875 -7.5625 C 2.671875 -8.039062 2.59375 -8.378906 2.4375 -8.578125 C 2.289062 -8.785156 2.050781 -8.890625 1.71875 -8.890625 L 1.453125 -8.890625 L 1.453125 -4.796875 Z M 1.71875 -4.796875 "/></g></g></g><g fill="#e5c3a6" fill-opacity="1"><g transform="translate(52.704763, 11.427829)"><g><path d="M 0.140625 -9.578125 L 0.921875 -9.578125 L 1.609375 -3.609375 C 1.628906 -3.429688 1.648438 -3.242188 1.671875 -3.046875 C 1.691406 -2.859375 1.707031 -2.664062 1.71875 -2.46875 C 1.738281 -2.28125 1.753906 -2.101562 1.765625 -1.9375 C 1.773438 -1.769531 1.785156 -1.617188 1.796875 -1.484375 L 1.828125 -1.484375 C 1.859375 -1.773438 1.894531 -2.113281 1.9375 -2.5 C 1.976562 -2.882812 2.019531 -3.25 2.0625 -3.59375 L 2.828125 -9.578125 L 3.59375 -9.578125 L 2.203125 0 L 1.3125 0 Z M 0.140625 -9.578125 "/></g></g></g><g fill="#e5c3a6" fill-opacity="1"><g transform="translate(57.658933, 11.427829)"><g><path d="M 1.484375 -9.578125 L 2.375 -9.578125 L 3.625 0 L 2.859375 0 L 2.578125 -2.296875 L 1.1875 -2.296875 L 0.890625 0 L 0.140625 0 Z M 2.484375 -3.015625 L 2.125 -5.96875 C 2.070312 -6.320312 2.03125 -6.6875 2 -7.0625 C 1.96875 -7.445312 1.945312 -7.800781 1.9375 -8.125 L 1.875 -8.125 C 1.84375 -7.800781 1.804688 -7.453125 1.765625 -7.078125 C 1.734375 -6.703125 1.695312 -6.335938 1.65625 -5.984375 L 1.265625 -3.015625 Z M 2.484375 -3.015625 "/></g></g></g><g fill="#e5c3a6" fill-opacity="1"><g transform="translate(62.654154, 11.427829)"><g><path d="M 0.6875 -9.578125 L 1.453125 -9.578125 L 1.453125 -0.71875 L 2.890625 -0.71875 L 2.890625 0 L 0.6875 0 Z M 0.6875 -9.578125 "/></g></g></g><g fill="#e5c3a6" fill-opacity="1"><g transform="translate(66.773556, 11.427829)"><g><path d="M 0.6875 -9.578125 L 1.453125 -9.578125 L 1.453125 -5.203125 L 2.734375 -5.203125 L 2.734375 -9.578125 L 3.5 -9.578125 L 3.5 0 L 2.734375 0 L 2.734375 -4.484375 L 1.453125 -4.484375 L 1.453125 0 L 0.6875 0 Z M 0.6875 -9.578125 "/></g></g></g><g fill="#e5c3a6" fill-opacity="1"><g transform="translate(72.192995, 11.427829)"><g><path d="M 2.015625 0.140625 C 1.554688 0.140625 1.207031 -0.0078125 0.96875 -0.3125 C 0.726562 -0.625 0.609375 -1.078125 0.609375 -1.671875 L 0.609375 -7.890625 C 0.609375 -8.484375 0.726562 -8.9375 0.96875 -9.25 C 1.21875 -9.5625 1.570312 -9.71875 2.03125 -9.71875 C 2.96875 -9.71875 3.4375 -9.109375 3.4375 -7.890625 L 3.4375 -1.671875 C 3.4375 -1.097656 3.3125 -0.648438 3.0625 -0.328125 C 2.820312 -0.015625 2.472656 0.140625 2.015625 0.140625 Z M 2.03125 -0.546875 C 2.257812 -0.546875 2.421875 -0.632812 2.515625 -0.8125 C 2.617188 -0.988281 2.671875 -1.273438 2.671875 -1.671875 L 2.671875 -7.890625 C 2.671875 -8.648438 2.457031 -9.03125 2.03125 -9.03125 C 1.800781 -9.03125 1.632812 -8.941406 1.53125 -8.765625 C 1.425781 -8.585938 1.375 -8.296875 1.375 -7.890625 L 1.375 -1.671875 C 1.375 -1.273438 1.425781 -0.988281 1.53125 -0.8125 C 1.632812 -0.632812 1.800781 -0.546875 2.03125 -0.546875 Z M 2.03125 -0.546875 "/></g></g></g></g></g><g transform="matrix(1, 0, 0, 1, 35, 21)"><g clip-path="url(#88794d46cd)"><g clip-path="url(#7a192c9db5)"><g fill="#e5c3a6" fill-opacity="1"><g transform="translate(0.586194, 6.988161)"><g><path d="M 0.25 -2.09375 C 0.25 -2.53125 0.285156 -2.890625 0.359375 -3.171875 C 0.429688 -3.453125 0.523438 -3.671875 0.640625 -3.828125 C 0.765625 -3.984375 0.90625 -4.085938 1.0625 -4.140625 C 1.21875 -4.203125 1.375 -4.234375 1.53125 -4.234375 C 1.71875 -4.234375 1.867188 -4.203125 1.984375 -4.140625 C 2.109375 -4.085938 2.21875 -4.019531 2.3125 -3.9375 L 2.3125 -3.4375 C 2.226562 -3.550781 2.125 -3.644531 2 -3.71875 C 1.875 -3.800781 1.734375 -3.84375 1.578125 -3.84375 C 1.429688 -3.84375 1.300781 -3.8125 1.1875 -3.75 C 1.082031 -3.695312 0.988281 -3.597656 0.90625 -3.453125 C 0.832031 -3.316406 0.773438 -3.132812 0.734375 -2.90625 C 0.691406 -2.6875 0.671875 -2.414062 0.671875 -2.09375 C 0.671875 -1.757812 0.691406 -1.476562 0.734375 -1.25 C 0.773438 -1.03125 0.832031 -0.851562 0.90625 -0.71875 C 0.988281 -0.582031 1.082031 -0.484375 1.1875 -0.421875 C 1.300781 -0.359375 1.429688 -0.328125 1.578125 -0.328125 C 1.734375 -0.328125 1.875 -0.363281 2 -0.4375 C 2.125 -0.507812 2.226562 -0.609375 2.3125 -0.734375 L 2.3125 -0.21875 C 2.21875 -0.132812 2.109375 -0.0664062 1.984375 -0.015625 C 1.867188 0.0351562 1.71875 0.0625 1.53125 0.0625 C 1.375 0.0625 1.21875 0.0351562 1.0625 -0.015625 C 0.90625 -0.078125 0.765625 -0.1875 0.640625 -0.34375 C 0.523438 -0.5 0.429688 -0.71875 0.359375 -1 C 0.285156 -1.28125 0.25 -1.644531 0.25 -2.09375 Z M 0.25 -2.09375 "/></g></g></g></g><g fill="#e5c3a6" fill-opacity="1"><g transform="translate(5.939105, 6.988161)"><g><path d="M 1.421875 0.0625 C 0.992188 0.0625 0.691406 -0.109375 0.515625 -0.453125 C 0.335938 -0.804688 0.25 -1.347656 0.25 -2.078125 C 0.25 -2.804688 0.335938 -3.347656 0.515625 -3.703125 C 0.691406 -4.054688 0.992188 -4.234375 1.421875 -4.234375 C 1.828125 -4.234375 2.117188 -4.054688 2.296875 -3.703125 C 2.484375 -3.347656 2.578125 -2.804688 2.578125 -2.078125 C 2.578125 -1.347656 2.484375 -0.804688 2.296875 -0.453125 C 2.117188 -0.109375 1.828125 0.0625 1.421875 0.0625 Z M 1.421875 -3.84375 C 1.265625 -3.84375 1.140625 -3.800781 1.046875 -3.71875 C 0.953125 -3.644531 0.875 -3.53125 0.8125 -3.375 C 0.75 -3.226562 0.707031 -3.046875 0.6875 -2.828125 C 0.664062 -2.609375 0.65625 -2.359375 0.65625 -2.078125 C 0.65625 -1.804688 0.664062 -1.5625 0.6875 -1.34375 C 0.707031 -1.125 0.75 -0.9375 0.8125 -0.78125 C 0.875 -0.632812 0.953125 -0.519531 1.046875 -0.4375 C 1.140625 -0.363281 1.265625 -0.328125 1.421875 -0.328125 C 1.566406 -0.328125 1.6875 -0.363281 1.78125 -0.4375 C 1.882812 -0.519531 1.960938 -0.632812 2.015625 -0.78125 C 2.078125 -0.9375 2.117188 -1.125 2.140625 -1.34375 C 2.171875 -1.5625 2.1875 -1.804688 2.1875 -2.078125 C 2.1875 -2.359375 2.171875 -2.609375 2.140625 -2.828125 C 2.117188 -3.046875 2.078125 -3.226562 2.015625 -3.375 C 1.960938 -3.53125 1.882812 -3.644531 1.78125 -3.71875 C 1.6875 -3.800781 1.566406 -3.84375 1.421875 -3.84375 Z M 1.421875 -3.84375 "/></g></g></g><g fill="#e5c3a6" fill-opacity="1"><g transform="translate(11.688786, 6.988161)"><g><path d="M 0.375 0 L 0.375 -4.171875 L 0.84375 -4.171875 L 1.9375 -0.875 L 1.953125 -0.875 L 1.953125 -4.171875 L 2.359375 -4.171875 L 2.359375 0 L 1.859375 0 L 0.78125 -3.25 L 0.765625 -3.25 L 0.765625 0 Z M 0.375 0 "/></g></g></g><g fill="#e5c3a6" fill-opacity="1"><g transform="translate(17.333075, 6.988161)"><g><path d="M 0.9375 0 L 0.9375 -3.78125 L 0.125 -3.78125 L 0.125 -4.171875 L 2.15625 -4.171875 L 2.15625 -3.78125 L 1.328125 -3.78125 L 1.328125 0 Z M 0.9375 0 "/></g></g></g><g fill="#e5c3a6" fill-opacity="1"><g transform="translate(22.530997, 6.988161)"><g><path d="M 0.515625 0 L 0.109375 0 L 1.171875 -4.171875 L 1.671875 -4.171875 L 2.734375 0 L 2.3125 0 L 2.015625 -1.1875 L 0.8125 -1.1875 Z M 0.90625 -1.578125 L 1.921875 -1.578125 L 1.40625 -3.640625 Z M 0.90625 -1.578125 "/></g></g></g><g fill="#e5c3a6" fill-opacity="1"><g transform="translate(28.286878, 6.988161)"><g><path d="M 0.375 -4.171875 L 1.1875 -4.171875 C 1.40625 -4.171875 1.59375 -4.144531 1.75 -4.09375 C 1.90625 -4.039062 2.03125 -3.96875 2.125 -3.875 C 2.21875 -3.789062 2.285156 -3.691406 2.328125 -3.578125 C 2.367188 -3.460938 2.390625 -3.335938 2.390625 -3.203125 C 2.390625 -2.910156 2.34375 -2.691406 2.25 -2.546875 C 2.164062 -2.398438 2.046875 -2.289062 1.890625 -2.21875 C 2.109375 -2.144531 2.269531 -2.023438 2.375 -1.859375 C 2.476562 -1.691406 2.53125 -1.46875 2.53125 -1.1875 C 2.53125 -1.03125 2.515625 -0.878906 2.484375 -0.734375 C 2.453125 -0.597656 2.394531 -0.472656 2.3125 -0.359375 C 2.226562 -0.253906 2.113281 -0.164062 1.96875 -0.09375 C 1.820312 -0.03125 1.628906 0 1.390625 0 L 0.375 0 Z M 1.21875 -0.390625 C 1.40625 -0.390625 1.554688 -0.410156 1.671875 -0.453125 C 1.785156 -0.492188 1.875 -0.546875 1.9375 -0.609375 C 2.007812 -0.679688 2.054688 -0.765625 2.078125 -0.859375 C 2.109375 -0.953125 2.125 -1.0625 2.125 -1.1875 C 2.125 -1.320312 2.109375 -1.441406 2.078125 -1.546875 C 2.054688 -1.648438 2.003906 -1.734375 1.921875 -1.796875 C 1.847656 -1.867188 1.734375 -1.921875 1.578125 -1.953125 C 1.429688 -1.984375 1.238281 -2 1 -2 L 0.78125 -2 L 0.78125 -0.390625 Z M 1.171875 -2.390625 C 1.359375 -2.390625 1.503906 -2.410156 1.609375 -2.453125 C 1.710938 -2.492188 1.789062 -2.546875 1.84375 -2.609375 C 1.90625 -2.671875 1.941406 -2.742188 1.953125 -2.828125 C 1.972656 -2.921875 1.984375 -3.023438 1.984375 -3.140625 C 1.984375 -3.242188 1.96875 -3.335938 1.9375 -3.421875 C 1.914062 -3.503906 1.867188 -3.570312 1.796875 -3.625 C 1.734375 -3.675781 1.644531 -3.710938 1.53125 -3.734375 C 1.414062 -3.765625 1.273438 -3.78125 1.109375 -3.78125 L 0.78125 -3.78125 L 0.78125 -2.390625 Z M 1.171875 -2.390625 "/></g></g></g><g fill="#e5c3a6" fill-opacity="1"><g transform="translate(33.986964, 6.988161)"><g><path d="M 0.28125 0 L 0.28125 -0.390625 L 0.59375 -0.390625 L 0.59375 -3.78125 L 0.28125 -3.78125 L 0.28125 -4.171875 L 1.296875 -4.171875 L 1.296875 -3.78125 L 1 -3.78125 L 1 -0.390625 L 1.296875 -0.390625 L 1.296875 0 Z M 0.28125 0 "/></g></g></g><g fill="#e5c3a6" fill-opacity="1"><g transform="translate(38.484337, 6.988161)"><g><path d="M 0.375 0 L 0.375 -4.171875 L 0.78125 -4.171875 L 0.78125 -0.390625 L 2.328125 -0.390625 L 2.328125 0 Z M 0.375 0 "/></g></g></g><g fill="#e5c3a6" fill-opacity="1"><g transform="translate(43.855846, 6.988161)"><g><path d="M 0.28125 0 L 0.28125 -0.390625 L 0.59375 -0.390625 L 0.59375 -3.78125 L 0.28125 -3.78125 L 0.28125 -4.171875 L 1.296875 -4.171875 L 1.296875 -3.78125 L 1 -3.78125 L 1 -0.390625 L 1.296875 -0.390625 L 1.296875 0 Z M 0.28125 0 "/></g></g></g><g fill="#e5c3a6" fill-opacity="1"><g transform="translate(48.353219, 6.988161)"><g><path d="M 0.375 0 L 0.375 -4.171875 L 1.1875 -4.171875 C 1.34375 -4.171875 1.5 -4.140625 1.65625 -4.078125 C 1.820312 -4.023438 1.96875 -3.921875 2.09375 -3.765625 C 2.21875 -3.609375 2.316406 -3.394531 2.390625 -3.125 C 2.472656 -2.851562 2.515625 -2.503906 2.515625 -2.078125 C 2.515625 -1.640625 2.472656 -1.285156 2.390625 -1.015625 C 2.316406 -0.742188 2.21875 -0.53125 2.09375 -0.375 C 1.96875 -0.226562 1.820312 -0.128906 1.65625 -0.078125 C 1.5 -0.0234375 1.34375 0 1.1875 0 Z M 1.125 -0.390625 C 1.257812 -0.390625 1.382812 -0.410156 1.5 -0.453125 C 1.625 -0.503906 1.734375 -0.59375 1.828125 -0.71875 C 1.921875 -0.84375 1.992188 -1.015625 2.046875 -1.234375 C 2.097656 -1.453125 2.125 -1.734375 2.125 -2.078125 C 2.125 -2.410156 2.097656 -2.6875 2.046875 -2.90625 C 1.992188 -3.132812 1.921875 -3.3125 1.828125 -3.4375 C 1.734375 -3.5625 1.625 -3.648438 1.5 -3.703125 C 1.382812 -3.753906 1.257812 -3.78125 1.125 -3.78125 L 0.78125 -3.78125 L 0.78125 -0.390625 Z M 1.125 -0.390625 "/></g></g></g><g fill="#e5c3a6" fill-opacity="1"><g transform="translate(54.040905, 6.988161)"><g><path d="M 0.515625 0 L 0.109375 0 L 1.171875 -4.171875 L 1.671875 -4.171875 L 2.734375 0 L 2.3125 0 L 2.015625 -1.1875 L 0.8125 -1.1875 Z M 0.90625 -1.578125 L 1.921875 -1.578125 L 1.40625 -3.640625 Z M 0.90625 -1.578125 "/></g></g></g><g fill="#e5c3a6" fill-opacity="1"><g transform="translate(59.796786, 6.988161)"><g><path d="M 0.375 0 L 0.375 -4.171875 L 1.1875 -4.171875 C 1.34375 -4.171875 1.5 -4.140625 1.65625 -4.078125 C 1.820312 -4.023438 1.96875 -3.921875 2.09375 -3.765625 C 2.21875 -3.609375 2.316406 -3.394531 2.390625 -3.125 C 2.472656 -2.851562 2.515625 -2.503906 2.515625 -2.078125 C 2.515625 -1.640625 2.472656 -1.285156 2.390625 -1.015625 C 2.316406 -0.742188 2.21875 -0.53125 2.09375 -0.375 C 1.96875 -0.226562 1.820312 -0.128906 1.65625 -0.078125 C 1.5 -0.0234375 1.34375 0 1.1875 0 Z M 1.125 -0.390625 C 1.257812 -0.390625 1.382812 -0.410156 1.5 -0.453125 C 1.625 -0.503906 1.734375 -0.59375 1.828125 -0.71875 C 1.921875 -0.84375 1.992188 -1.015625 2.046875 -1.234375 C 2.097656 -1.453125 2.125 -1.734375 2.125 -2.078125 C 2.125 -2.410156 2.097656 -2.6875 2.046875 -2.90625 C 1.992188 -3.132812 1.921875 -3.3125 1.828125 -3.4375 C 1.734375 -3.5625 1.625 -3.648438 1.5 -3.703125 C 1.382812 -3.753906 1.257812 -3.78125 1.125 -3.78125 L 0.78125 -3.78125 L 0.78125 -0.390625 Z M 1.125 -0.390625 "/></g></g></g><g fill="#e5c3a6" fill-opacity="1"><g transform="translate(65.484472, 6.988161)"><g><path d="M 0.375 0 L 0.375 -4.171875 L 2.21875 -4.171875 L 2.21875 -3.78125 L 0.78125 -3.78125 L 0.78125 -2.359375 L 2.109375 -2.359375 L 2.109375 -1.96875 L 0.78125 -1.96875 L 0.78125 -0.390625 L 2.21875 -0.390625 L 2.21875 0 Z M 0.375 0 "/></g></g></g></g></g></svg>