<svg xmlns="http://www.w3.org/2000/svg" xmlns:xlink="http://www.w3.org/1999/xlink" width="150" zoomAndPan="magnify" viewBox="0 0 112.5 37.5" height="50" preserveAspectRatio="xMidYMid meet" version="1.0"><defs><g/><clipPath id="94536599d0"><path d="M 63 0.421875 L 67 0.421875 L 67 11 L 63 11 Z M 63 0.421875 " clip-rule="nonzero"/></clipPath><clipPath id="bac4a62799"><path d="M 67 0.421875 L 70 0.421875 L 70 11 L 67 11 Z M 67 0.421875 " clip-rule="nonzero"/></clipPath><clipPath id="84c0218b4e"><rect x="0" width="86" y="0" height="13"/></clipPath><clipPath id="8a36be1251"><path d="M 0.0195312 2 L 3 2 L 3 5 L 0.0195312 5 Z M 0.0195312 2 " clip-rule="nonzero"/></clipPath><clipPath id="8a296dd66c"><rect x="0" width="83" y="0" height="6"/></clipPath><clipPath id="2a51a07dae"><path d="M 2.175781 8.46875 L 22.246094 8.46875 L 22.246094 28.539062 L 2.175781 28.539062 Z M 2.175781 8.46875 " clip-rule="nonzero"/></clipPath><clipPath id="421b97ecc0"><path d="M 5.136719 8.46875 L 19.285156 8.46875 C 20.917969 8.46875 22.246094 9.792969 22.246094 11.429688 L 22.246094 25.578125 C 22.246094 27.214844 20.917969 28.539062 19.285156 28.539062 L 5.136719 28.539062 C 3.5 28.539062 2.175781 27.214844 2.175781 25.578125 L 2.175781 11.429688 C 2.175781 9.792969 3.5 8.46875 5.136719 8.46875 Z M 5.136719 8.46875 " clip-rule="nonzero"/></clipPath><clipPath id="949a7c6e6c"><path d="M 0.175781 0.46875 L 20.246094 0.46875 L 20.246094 20.539062 L 0.175781 20.539062 Z M 0.175781 0.46875 " clip-rule="nonzero"/></clipPath><clipPath id="122aba1568"><path d="M 3.136719 0.46875 L 17.285156 0.46875 C 18.917969 0.46875 20.246094 1.792969 20.246094 3.429688 L 20.246094 17.578125 C 20.246094 19.214844 18.917969 20.539062 17.285156 20.539062 L 3.136719 20.539062 C 1.5 20.539062 0.175781 19.214844 0.175781 17.578125 L 0.175781 3.429688 C 0.175781 1.792969 1.5 0.46875 3.136719 0.46875 Z M 3.136719 0.46875 " clip-rule="nonzero"/></clipPath><clipPath id="0278fb482a"><rect x="0" width="21" y="0" height="21"/></clipPath><clipPath id="33cc1e2be3"><path d="M 9 16 L 11 16 L 11 23.519531 L 9 23.519531 Z M 9 16 " clip-rule="nonzero"/></clipPath><clipPath id="3bfc8e9f46"><path d="M 7.558594 13.160156 L 12 13.160156 L 12 18 L 7.558594 18 Z M 7.558594 13.160156 " clip-rule="nonzero"/></clipPath><clipPath id="b738ffc681"><path d="M 14 18 L 16 18 L 16 23.519531 L 14 23.519531 Z M 14 18 " clip-rule="nonzero"/></clipPath><clipPath id="72b2d67f6a"><path d="M 13.359375 16.859375 L 16.320312 16.859375 L 16.320312 20 L 13.359375 20 Z M 13.359375 16.859375 " clip-rule="nonzero"/></clipPath></defs><g transform="matrix(1, 0, 0, 1, 24, 10)"><g clip-path="url(#84c0218b4e)"><g fill="#f6faff" fill-opacity="1"><g transform="translate(0.822177, 10.313009)"><g><path d="M 5.125 -9.171875 C 7 -9.171875 8.332031 -8.34375 9.125 -6.6875 L 6.9375 -5.765625 C 6.757812 -6.210938 6.503906 -6.554688 6.171875 -6.796875 C 5.847656 -7.046875 5.460938 -7.171875 5.015625 -7.171875 C 4.335938 -7.171875 3.78125 -6.898438 3.34375 -6.359375 C 2.914062 -5.816406 2.703125 -5.15625 2.703125 -4.375 C 2.703125 -3.894531 2.796875 -3.4375 2.984375 -3 C 3.179688 -2.570312 3.457031 -2.226562 3.8125 -1.96875 C 4.164062 -1.71875 4.578125 -1.59375 5.046875 -1.59375 C 5.585938 -1.59375 6.019531 -1.726562 6.34375 -2 C 6.664062 -2.28125 6.851562 -2.660156 6.90625 -3.140625 L 5.03125 -3.140625 L 5.03125 -4.953125 L 9.59375 -4.953125 C 9.582031 -3.859375 9.457031 -3.015625 9.21875 -2.421875 C 8.988281 -1.835938 8.660156 -1.335938 8.234375 -0.921875 C 7.816406 -0.503906 7.34375 -0.195312 6.8125 0 C 6.28125 0.195312 5.6875 0.296875 5.03125 0.296875 C 3.625 0.296875 2.484375 -0.132812 1.609375 -1 C 0.742188 -1.875 0.3125 -3.003906 0.3125 -4.390625 C 0.3125 -5.816406 0.75 -6.96875 1.625 -7.84375 C 2.5 -8.726562 3.664062 -9.171875 5.125 -9.171875 Z M 5.125 -9.171875 "/></g></g></g><g fill="#f6faff" fill-opacity="1"><g transform="translate(10.732714, 10.313009)"><g><path d="M 2.8125 -6.03125 L 2.8125 -2.765625 C 2.8125 -2.316406 2.894531 -1.992188 3.0625 -1.796875 C 3.226562 -1.597656 3.5 -1.5 3.875 -1.5 C 4.28125 -1.5 4.5625 -1.601562 4.71875 -1.8125 C 4.875 -2.03125 4.953125 -2.347656 4.953125 -2.765625 L 4.953125 -6.03125 L 7.09375 -6.03125 L 7.09375 -2.359375 C 7.09375 -0.648438 6.019531 0.203125 3.875 0.203125 C 1.738281 0.203125 0.671875 -0.65625 0.671875 -2.375 L 0.671875 -6.03125 Z M 2.8125 -6.03125 "/></g></g></g><g fill="#f6faff" fill-opacity="1"><g transform="translate(18.489298, 10.313009)"><g><path d="M 3.4375 -6.234375 C 4.175781 -6.234375 4.832031 -6.101562 5.40625 -5.84375 L 4.6875 -4.484375 C 4.3125 -4.679688 3.929688 -4.78125 3.546875 -4.78125 C 3.359375 -4.78125 3.195312 -4.738281 3.0625 -4.65625 C 2.9375 -4.582031 2.875 -4.484375 2.875 -4.359375 C 2.875 -4.128906 3.082031 -3.976562 3.5 -3.90625 L 3.828125 -3.828125 C 5.003906 -3.617188 5.59375 -3.023438 5.59375 -2.046875 C 5.59375 -1.359375 5.332031 -0.8125 4.8125 -0.40625 C 4.289062 -0.0078125 3.597656 0.191406 2.734375 0.203125 C 1.878906 0.203125 1.070312 -0.03125 0.3125 -0.5 L 1.078125 -1.984375 C 1.265625 -1.835938 1.53125 -1.695312 1.875 -1.5625 C 2.21875 -1.4375 2.515625 -1.375 2.765625 -1.375 C 2.941406 -1.375 3.097656 -1.414062 3.234375 -1.5 C 3.378906 -1.582031 3.453125 -1.691406 3.453125 -1.828125 C 3.453125 -1.972656 3.382812 -2.085938 3.25 -2.171875 C 3.113281 -2.265625 2.890625 -2.34375 2.578125 -2.40625 C 1.859375 -2.539062 1.375 -2.738281 1.125 -3 C 0.882812 -3.269531 0.765625 -3.632812 0.765625 -4.09375 C 0.765625 -4.738281 1.007812 -5.253906 1.5 -5.640625 C 2 -6.035156 2.644531 -6.234375 3.4375 -6.234375 Z M 3.4375 -6.234375 "/></g></g></g><g fill="#f6faff" fill-opacity="1"><g transform="translate(24.527431, 10.313009)"><g><path d="M 3.046875 -7.84375 L 3.046875 -6.03125 L 4.265625 -6.03125 L 4.265625 -4.265625 L 3.046875 -4.265625 L 3.046875 0 L 0.90625 0 L 0.90625 -4.265625 L 0.21875 -4.265625 L 0.21875 -6.03125 L 0.90625 -6.03125 L 0.90625 -7.84375 Z M 3.046875 -7.84375 "/></g></g></g><g fill="#f6faff" fill-opacity="1"><g transform="translate(28.764717, 10.313009)"><g><path d="M 5.171875 -6.03125 L 7.3125 -6.03125 L 7.3125 0 L 5.171875 0 L 5.171875 -0.671875 L 5.140625 -0.671875 C 4.773438 -0.109375 4.164062 0.179688 3.3125 0.203125 C 2.46875 0.203125 1.75 -0.101562 1.15625 -0.71875 C 0.5625 -1.332031 0.265625 -2.101562 0.265625 -3.03125 C 0.265625 -3.945312 0.5625 -4.707031 1.15625 -5.3125 C 1.75 -5.925781 2.460938 -6.234375 3.296875 -6.234375 C 4.078125 -6.222656 4.703125 -5.960938 5.171875 -5.453125 Z M 3.859375 -1.65625 C 4.265625 -1.65625 4.59375 -1.773438 4.84375 -2.015625 C 5.101562 -2.253906 5.234375 -2.585938 5.234375 -3.015625 C 5.234375 -3.410156 5.109375 -3.734375 4.859375 -3.984375 C 4.609375 -4.242188 4.269531 -4.375 3.84375 -4.375 C 3.445312 -4.375 3.117188 -4.242188 2.859375 -3.984375 C 2.609375 -3.734375 2.484375 -3.410156 2.484375 -3.015625 C 2.484375 -2.609375 2.609375 -2.28125 2.859375 -2.03125 C 3.117188 -1.78125 3.453125 -1.65625 3.859375 -1.65625 Z M 3.859375 -1.65625 "/></g></g></g><g fill="#f6faff" fill-opacity="1"><g transform="translate(36.792018, 10.313009)"><g><path d="M 2.21875 -6.03125 L 3.671875 -2.9375 L 5.109375 -6.03125 L 7.5 -6.03125 L 4.359375 0 L 2.984375 0 L -0.171875 -6.03125 Z M 2.21875 -6.03125 "/></g></g></g><g fill="#f6faff" fill-opacity="1"><g transform="translate(44.124876, 10.313009)"><g><path d="M 7.53125 -3.015625 C 7.53125 -2.066406 7.191406 -1.289062 6.515625 -0.6875 C 5.835938 -0.09375 4.960938 0.203125 3.890625 0.203125 C 2.835938 0.203125 1.96875 -0.09375 1.28125 -0.6875 C 0.601562 -1.28125 0.265625 -2.054688 0.265625 -3.015625 C 0.265625 -3.960938 0.601562 -4.734375 1.28125 -5.328125 C 1.96875 -5.929688 2.835938 -6.234375 3.890625 -6.234375 C 4.953125 -6.234375 5.820312 -5.9375 6.5 -5.34375 C 7.1875 -4.75 7.53125 -3.972656 7.53125 -3.015625 Z M 3.890625 -1.65625 C 4.316406 -1.65625 4.648438 -1.78125 4.890625 -2.03125 C 5.140625 -2.28125 5.265625 -2.609375 5.265625 -3.015625 C 5.265625 -3.398438 5.140625 -3.722656 4.890625 -3.984375 C 4.640625 -4.242188 4.300781 -4.375 3.875 -4.375 C 3.476562 -4.375 3.148438 -4.242188 2.890625 -3.984375 C 2.640625 -3.734375 2.515625 -3.410156 2.515625 -3.015625 C 2.515625 -2.609375 2.640625 -2.28125 2.890625 -2.03125 C 3.148438 -1.78125 3.484375 -1.65625 3.890625 -1.65625 Z M 3.890625 -1.65625 "/></g></g></g><g fill="#f6faff" fill-opacity="1"><g transform="translate(51.916772, 10.313009)"><g/></g></g><g fill="#f6faff" fill-opacity="1"><g transform="translate(55.953965, 10.313009)"><g><path d="M 3.75 -9.109375 C 4.707031 -9.109375 5.640625 -8.863281 6.546875 -8.375 L 5.625 -6.59375 C 5.144531 -6.976562 4.632812 -7.171875 4.09375 -7.171875 C 3.832031 -7.171875 3.601562 -7.101562 3.40625 -6.96875 C 3.207031 -6.832031 3.109375 -6.65625 3.109375 -6.4375 C 3.109375 -6.226562 3.203125 -6.054688 3.390625 -5.921875 C 3.578125 -5.785156 3.882812 -5.65625 4.3125 -5.53125 C 5.039062 -5.34375 5.578125 -5.128906 5.921875 -4.890625 C 6.265625 -4.648438 6.515625 -4.378906 6.671875 -4.078125 C 6.828125 -3.785156 6.90625 -3.421875 6.90625 -2.984375 C 6.90625 -1.847656 6.566406 -1.023438 5.890625 -0.515625 C 5.210938 -0.015625 4.398438 0.234375 3.453125 0.234375 C 2.335938 0.234375 1.304688 -0.101562 0.359375 -0.78125 L 1.34375 -2.640625 C 2.039062 -2.023438 2.71875 -1.71875 3.375 -1.71875 C 3.707031 -1.71875 3.976562 -1.796875 4.1875 -1.953125 C 4.394531 -2.117188 4.5 -2.335938 4.5 -2.609375 C 4.5 -3.015625 4.179688 -3.3125 3.546875 -3.5 C 2.503906 -3.789062 1.847656 -4.03125 1.578125 -4.21875 C 1.304688 -4.40625 1.09375 -4.648438 0.9375 -4.953125 C 0.78125 -5.253906 0.703125 -5.644531 0.703125 -6.125 C 0.703125 -7.007812 0.984375 -7.726562 1.546875 -8.28125 C 2.117188 -8.832031 2.851562 -9.109375 3.75 -9.109375 Z M 3.75 -9.109375 "/></g></g></g><g clip-path="url(#94536599d0)"><g fill="#f6faff" fill-opacity="1"><g transform="translate(63.204431, 10.313009)"><g><path d="M 2.984375 -8.359375 C 2.984375 -8.023438 2.863281 -7.738281 2.625 -7.5 C 2.382812 -7.269531 2.101562 -7.15625 1.78125 -7.15625 C 1.445312 -7.15625 1.160156 -7.273438 0.921875 -7.515625 C 0.691406 -7.753906 0.578125 -8.035156 0.578125 -8.359375 C 0.578125 -8.703125 0.695312 -8.984375 0.9375 -9.203125 C 1.175781 -9.429688 1.457031 -9.546875 1.78125 -9.546875 C 2.101562 -9.546875 2.382812 -9.429688 2.625 -9.203125 C 2.863281 -8.972656 2.984375 -8.691406 2.984375 -8.359375 Z M 2.84375 -6.03125 L 2.84375 0 L 0.703125 0 L 0.703125 -6.03125 Z M 2.84375 -6.03125 "/></g></g></g></g><g clip-path="url(#bac4a62799)"><g fill="#f6faff" fill-opacity="1"><g transform="translate(66.759042, 10.313009)"><g><path d="M 2.84375 -9.765625 L 2.84375 0 L 0.703125 0 L 0.703125 -9.765625 Z M 2.84375 -9.765625 "/></g></g></g></g><g fill="#f6faff" fill-opacity="1"><g transform="translate(70.313653, 10.313009)"><g><path d="M 2.21875 -6.03125 L 3.671875 -2.9375 L 5.109375 -6.03125 L 7.5 -6.03125 L 4.359375 0 L 2.984375 0 L -0.171875 -6.03125 Z M 2.21875 -6.03125 "/></g></g></g><g fill="#f6faff" fill-opacity="1"><g transform="translate(77.646515, 10.313009)"><g><path d="M 5.171875 -6.03125 L 7.3125 -6.03125 L 7.3125 0 L 5.171875 0 L 5.171875 -0.671875 L 5.140625 -0.671875 C 4.773438 -0.109375 4.164062 0.179688 3.3125 0.203125 C 2.46875 0.203125 1.75 -0.101562 1.15625 -0.71875 C 0.5625 -1.332031 0.265625 -2.101562 0.265625 -3.03125 C 0.265625 -3.945312 0.5625 -4.707031 1.15625 -5.3125 C 1.75 -5.925781 2.460938 -6.234375 3.296875 -6.234375 C 4.078125 -6.222656 4.703125 -5.960938 5.171875 -5.453125 Z M 3.859375 -1.65625 C 4.265625 -1.65625 4.59375 -1.773438 4.84375 -2.015625 C 5.101562 -2.253906 5.234375 -2.585938 5.234375 -3.015625 C 5.234375 -3.410156 5.109375 -3.734375 4.859375 -3.984375 C 4.609375 -4.242188 4.269531 -4.375 3.84375 -4.375 C 3.445312 -4.375 3.117188 -4.242188 2.859375 -3.984375 C 2.609375 -3.734375 2.484375 -3.410156 2.484375 -3.015625 C 2.484375 -2.609375 2.609375 -2.28125 2.859375 -2.03125 C 3.117188 -1.78125 3.453125 -1.65625 3.859375 -1.65625 Z M 3.859375 -1.65625 "/></g></g></g></g></g><g transform="matrix(1, 0, 0, 1, 27, 22)"><g clip-path="url(#8a296dd66c)"><g clip-path="url(#8a36be1251)"><g fill="#f6faff" fill-opacity="1"><g transform="translate(0.328093, 4.648184)"><g><path d="M 1.421875 -1.3125 L 2.296875 -1.3125 L 2.296875 -0.09375 C 2.160156 -0.0507812 2.019531 -0.0195312 1.875 0 C 1.738281 0.0195312 1.585938 0.03125 1.421875 0.03125 C 1.160156 0.03125 0.941406 -0.0195312 0.765625 -0.125 C 0.585938 -0.226562 0.453125 -0.375 0.359375 -0.5625 C 0.265625 -0.757812 0.21875 -0.988281 0.21875 -1.25 C 0.21875 -1.507812 0.265625 -1.734375 0.359375 -1.921875 C 0.460938 -2.117188 0.613281 -2.269531 0.8125 -2.375 C 1.007812 -2.488281 1.242188 -2.546875 1.515625 -2.546875 C 1.648438 -2.546875 1.78125 -2.53125 1.90625 -2.5 C 2.03125 -2.476562 2.148438 -2.441406 2.265625 -2.390625 L 2.140625 -2.140625 C 2.054688 -2.179688 1.957031 -2.21875 1.84375 -2.25 C 1.726562 -2.28125 1.613281 -2.296875 1.5 -2.296875 C 1.289062 -2.296875 1.113281 -2.25 0.96875 -2.15625 C 0.820312 -2.070312 0.707031 -1.953125 0.625 -1.796875 C 0.550781 -1.648438 0.515625 -1.46875 0.515625 -1.25 C 0.515625 -1.039062 0.546875 -0.859375 0.609375 -0.703125 C 0.679688 -0.546875 0.789062 -0.425781 0.9375 -0.34375 C 1.082031 -0.257812 1.265625 -0.21875 1.484375 -0.21875 C 1.597656 -0.21875 1.695312 -0.222656 1.78125 -0.234375 C 1.863281 -0.242188 1.9375 -0.257812 2 -0.28125 L 2 -1.046875 L 1.421875 -1.046875 Z M 1.421875 -1.3125 "/></g></g></g></g><g fill="#f6faff" fill-opacity="1"><g transform="translate(4.518003, 4.648184)"><g><path d="M 1.734375 0 L 0.34375 0 L 0.34375 -2.515625 L 1.734375 -2.515625 L 1.734375 -2.25 L 0.640625 -2.25 L 0.640625 -1.4375 L 1.671875 -1.4375 L 1.671875 -1.1875 L 0.640625 -1.1875 L 0.640625 -0.25 L 1.734375 -0.25 Z M 1.734375 0 "/></g></g></g><g fill="#f6faff" fill-opacity="1"><g transform="translate(8.105005, 4.648184)"><g><path d="M 1.765625 -0.671875 C 1.765625 -0.515625 1.722656 -0.382812 1.640625 -0.28125 C 1.566406 -0.175781 1.460938 -0.0976562 1.328125 -0.046875 C 1.203125 0.00390625 1.050781 0.03125 0.875 0.03125 C 0.78125 0.03125 0.6875 0.0234375 0.59375 0.015625 C 0.507812 0.00390625 0.429688 -0.00390625 0.359375 -0.015625 C 0.296875 -0.0351562 0.238281 -0.0546875 0.1875 -0.078125 L 0.1875 -0.359375 C 0.269531 -0.328125 0.375 -0.296875 0.5 -0.265625 C 0.625 -0.234375 0.75 -0.21875 0.875 -0.21875 C 1.007812 -0.21875 1.117188 -0.234375 1.203125 -0.265625 C 1.285156 -0.296875 1.347656 -0.34375 1.390625 -0.40625 C 1.441406 -0.476562 1.46875 -0.554688 1.46875 -0.640625 C 1.46875 -0.722656 1.445312 -0.796875 1.40625 -0.859375 C 1.375 -0.921875 1.3125 -0.972656 1.21875 -1.015625 C 1.132812 -1.066406 1.015625 -1.117188 0.859375 -1.171875 C 0.753906 -1.203125 0.660156 -1.238281 0.578125 -1.28125 C 0.503906 -1.332031 0.4375 -1.382812 0.375 -1.4375 C 0.320312 -1.5 0.28125 -1.566406 0.25 -1.640625 C 0.226562 -1.722656 0.21875 -1.8125 0.21875 -1.90625 C 0.21875 -2.039062 0.25 -2.15625 0.3125 -2.25 C 0.382812 -2.34375 0.476562 -2.414062 0.59375 -2.46875 C 0.71875 -2.519531 0.859375 -2.546875 1.015625 -2.546875 C 1.148438 -2.546875 1.273438 -2.53125 1.390625 -2.5 C 1.503906 -2.476562 1.609375 -2.445312 1.703125 -2.40625 L 1.609375 -2.15625 C 1.515625 -2.195312 1.414062 -2.226562 1.3125 -2.25 C 1.21875 -2.269531 1.113281 -2.28125 1 -2.28125 C 0.894531 -2.28125 0.804688 -2.265625 0.734375 -2.234375 C 0.660156 -2.203125 0.601562 -2.15625 0.5625 -2.09375 C 0.53125 -2.039062 0.515625 -1.976562 0.515625 -1.90625 C 0.515625 -1.8125 0.53125 -1.734375 0.5625 -1.671875 C 0.601562 -1.617188 0.660156 -1.566406 0.734375 -1.515625 C 0.816406 -1.472656 0.925781 -1.429688 1.0625 -1.390625 C 1.21875 -1.335938 1.34375 -1.28125 1.4375 -1.21875 C 1.539062 -1.15625 1.617188 -1.078125 1.671875 -0.984375 C 1.734375 -0.898438 1.765625 -0.796875 1.765625 -0.671875 Z M 1.765625 -0.671875 "/></g></g></g><g fill="#f6faff" fill-opacity="1"><g transform="translate(11.666241, 4.648184)"><g><path d="M 1.109375 0 L 0.828125 0 L 0.828125 -2.25 L 0.03125 -2.25 L 0.03125 -2.515625 L 1.90625 -2.515625 L 1.90625 -2.25 L 1.109375 -2.25 Z M 1.109375 0 "/></g></g></g><g fill="#f6faff" fill-opacity="1"><g transform="translate(15.236066, 4.648184)"><g><path d="M 2.515625 -1.265625 C 2.515625 -1.066406 2.488281 -0.890625 2.4375 -0.734375 C 2.394531 -0.578125 2.320312 -0.441406 2.21875 -0.328125 C 2.125 -0.210938 2.003906 -0.125 1.859375 -0.0625 C 1.722656 0 1.5625 0.03125 1.375 0.03125 C 1.175781 0.03125 1.003906 0 0.859375 -0.0625 C 0.710938 -0.125 0.59375 -0.210938 0.5 -0.328125 C 0.40625 -0.441406 0.332031 -0.578125 0.28125 -0.734375 C 0.238281 -0.890625 0.21875 -1.066406 0.21875 -1.265625 C 0.21875 -1.515625 0.257812 -1.734375 0.34375 -1.921875 C 0.425781 -2.117188 0.550781 -2.269531 0.71875 -2.375 C 0.894531 -2.488281 1.113281 -2.546875 1.375 -2.546875 C 1.625 -2.546875 1.832031 -2.492188 2 -2.390625 C 2.164062 -2.285156 2.289062 -2.132812 2.375 -1.9375 C 2.46875 -1.75 2.515625 -1.523438 2.515625 -1.265625 Z M 0.515625 -1.265625 C 0.515625 -1.046875 0.546875 -0.859375 0.609375 -0.703125 C 0.671875 -0.546875 0.765625 -0.425781 0.890625 -0.34375 C 1.015625 -0.257812 1.175781 -0.21875 1.375 -0.21875 C 1.5625 -0.21875 1.71875 -0.257812 1.84375 -0.34375 C 1.96875 -0.425781 2.0625 -0.546875 2.125 -0.703125 C 2.1875 -0.859375 2.21875 -1.046875 2.21875 -1.265625 C 2.21875 -1.585938 2.148438 -1.835938 2.015625 -2.015625 C 1.878906 -2.203125 1.664062 -2.296875 1.375 -2.296875 C 1.175781 -2.296875 1.015625 -2.253906 0.890625 -2.171875 C 0.765625 -2.085938 0.671875 -1.96875 0.609375 -1.8125 C 0.546875 -1.65625 0.515625 -1.472656 0.515625 -1.265625 Z M 0.515625 -1.265625 "/></g></g></g><g fill="#f6faff" fill-opacity="1"><g transform="translate(19.604616, 4.648184)"><g><path d="M 1.015625 -2.515625 C 1.222656 -2.515625 1.394531 -2.488281 1.53125 -2.4375 C 1.664062 -2.382812 1.765625 -2.304688 1.828125 -2.203125 C 1.898438 -2.097656 1.9375 -1.960938 1.9375 -1.796875 C 1.9375 -1.671875 1.910156 -1.5625 1.859375 -1.46875 C 1.804688 -1.382812 1.742188 -1.3125 1.671875 -1.25 C 1.597656 -1.195312 1.515625 -1.15625 1.421875 -1.125 L 2.109375 0 L 1.765625 0 L 1.15625 -1.046875 L 0.640625 -1.046875 L 0.640625 0 L 0.34375 0 L 0.34375 -2.515625 Z M 1 -2.25 L 0.640625 -2.25 L 0.640625 -1.296875 L 1.03125 -1.296875 C 1.238281 -1.296875 1.390625 -1.335938 1.484375 -1.421875 C 1.578125 -1.503906 1.625 -1.625 1.625 -1.78125 C 1.625 -1.957031 1.570312 -2.078125 1.46875 -2.140625 C 1.375 -2.210938 1.21875 -2.25 1 -2.25 Z M 1 -2.25 "/></g></g></g><g fill="#f6faff" fill-opacity="1"><g transform="translate(23.408046, 4.648184)"><g/></g></g><g fill="#f6faff" fill-opacity="1"><g transform="translate(25.954128, 4.648184)"><g><path d="M 2.34375 -1.28125 C 2.34375 -1 2.289062 -0.757812 2.1875 -0.5625 C 2.082031 -0.375 1.929688 -0.234375 1.734375 -0.140625 C 1.535156 -0.046875 1.300781 0 1.03125 0 L 0.34375 0 L 0.34375 -2.515625 L 1.09375 -2.515625 C 1.351562 -2.515625 1.570312 -2.46875 1.75 -2.375 C 1.9375 -2.28125 2.082031 -2.140625 2.1875 -1.953125 C 2.289062 -1.773438 2.34375 -1.550781 2.34375 -1.28125 Z M 2.03125 -1.265625 C 2.03125 -1.492188 1.988281 -1.679688 1.90625 -1.828125 C 1.832031 -1.972656 1.722656 -2.082031 1.578125 -2.15625 C 1.441406 -2.226562 1.269531 -2.265625 1.0625 -2.265625 L 0.640625 -2.265625 L 0.640625 -0.25 L 0.984375 -0.25 C 1.335938 -0.25 1.597656 -0.332031 1.765625 -0.5 C 1.941406 -0.675781 2.03125 -0.929688 2.03125 -1.265625 Z M 2.03125 -1.265625 "/></g></g></g><g fill="#f6faff" fill-opacity="1"><g transform="translate(30.138885, 4.648184)"><g><path d="M 1.734375 0 L 0.34375 0 L 0.34375 -2.515625 L 1.734375 -2.515625 L 1.734375 -2.25 L 0.640625 -2.25 L 0.640625 -1.4375 L 1.671875 -1.4375 L 1.671875 -1.1875 L 0.640625 -1.1875 L 0.640625 -0.25 L 1.734375 -0.25 Z M 1.734375 0 "/></g></g></g><g fill="#f6faff" fill-opacity="1"><g transform="translate(33.725887, 4.648184)"><g/></g></g><g fill="#f6faff" fill-opacity="1"><g transform="translate(36.271968, 4.648184)"><g><path d="M 1.109375 0 L 0.828125 0 L 0.828125 -2.25 L 0.03125 -2.25 L 0.03125 -2.515625 L 1.90625 -2.515625 L 1.90625 -2.25 L 1.109375 -2.25 Z M 1.109375 0 "/></g></g></g><g fill="#f6faff" fill-opacity="1"><g transform="translate(39.841793, 4.648184)"><g><path d="M 1.015625 -2.515625 C 1.222656 -2.515625 1.394531 -2.488281 1.53125 -2.4375 C 1.664062 -2.382812 1.765625 -2.304688 1.828125 -2.203125 C 1.898438 -2.097656 1.9375 -1.960938 1.9375 -1.796875 C 1.9375 -1.671875 1.910156 -1.5625 1.859375 -1.46875 C 1.804688 -1.382812 1.742188 -1.3125 1.671875 -1.25 C 1.597656 -1.195312 1.515625 -1.15625 1.421875 -1.125 L 2.109375 0 L 1.765625 0 L 1.15625 -1.046875 L 0.640625 -1.046875 L 0.640625 0 L 0.34375 0 L 0.34375 -2.515625 Z M 1 -2.25 L 0.640625 -2.25 L 0.640625 -1.296875 L 1.03125 -1.296875 C 1.238281 -1.296875 1.390625 -1.335938 1.484375 -1.421875 C 1.578125 -1.503906 1.625 -1.625 1.625 -1.78125 C 1.625 -1.957031 1.570312 -2.078125 1.46875 -2.140625 C 1.375 -2.210938 1.21875 -2.25 1 -2.25 Z M 1 -2.25 "/></g></g></g><g fill="#f6faff" fill-opacity="1"><g transform="translate(43.645223, 4.648184)"><g><path d="M 1.921875 0 L 1.609375 -0.796875 L 0.609375 -0.796875 L 0.296875 0 L 0 0 L 0.984375 -2.515625 L 1.25 -2.515625 L 2.21875 0 Z M 1.515625 -1.0625 L 1.234375 -1.84375 C 1.222656 -1.863281 1.207031 -1.894531 1.1875 -1.9375 C 1.175781 -1.988281 1.160156 -2.039062 1.140625 -2.09375 C 1.128906 -2.144531 1.117188 -2.1875 1.109375 -2.21875 C 1.097656 -2.164062 1.082031 -2.113281 1.0625 -2.0625 C 1.050781 -2.019531 1.039062 -1.976562 1.03125 -1.9375 C 1.019531 -1.90625 1.007812 -1.875 1 -1.84375 L 0.703125 -1.0625 Z M 1.609375 -3.3125 L 1.609375 -3.28125 C 1.578125 -3.25 1.539062 -3.207031 1.5 -3.15625 C 1.46875 -3.113281 1.425781 -3.066406 1.375 -3.015625 C 1.320312 -2.960938 1.269531 -2.914062 1.21875 -2.875 C 1.175781 -2.832031 1.132812 -2.789062 1.09375 -2.75 L 0.90625 -2.75 L 0.90625 -2.796875 C 0.945312 -2.835938 0.988281 -2.890625 1.03125 -2.953125 C 1.070312 -3.015625 1.113281 -3.078125 1.15625 -3.140625 C 1.195312 -3.203125 1.226562 -3.257812 1.25 -3.3125 Z M 1.609375 -3.3125 "/></g></g></g><g fill="#f6faff" fill-opacity="1"><g transform="translate(47.501902, 4.648184)"><g><path d="M 0.640625 0 L 0.34375 0 L 0.34375 -2.515625 L 1.734375 -2.515625 L 1.734375 -2.25 L 0.640625 -2.25 L 0.640625 -1.328125 L 1.671875 -1.328125 L 1.671875 -1.078125 L 0.640625 -1.078125 Z M 0.640625 0 "/></g></g></g><g fill="#f6faff" fill-opacity="1"><g transform="translate(50.94977, 4.648184)"><g><path d="M 1.734375 0 L 0.34375 0 L 0.34375 -2.515625 L 1.734375 -2.515625 L 1.734375 -2.25 L 0.640625 -2.25 L 0.640625 -1.4375 L 1.671875 -1.4375 L 1.671875 -1.1875 L 0.640625 -1.1875 L 0.640625 -0.25 L 1.734375 -0.25 Z M 1.734375 0 "/></g></g></g><g fill="#f6faff" fill-opacity="1"><g transform="translate(54.536772, 4.648184)"><g><path d="M 1.421875 -1.3125 L 2.296875 -1.3125 L 2.296875 -0.09375 C 2.160156 -0.0507812 2.019531 -0.0195312 1.875 0 C 1.738281 0.0195312 1.585938 0.03125 1.421875 0.03125 C 1.160156 0.03125 0.941406 -0.0195312 0.765625 -0.125 C 0.585938 -0.226562 0.453125 -0.375 0.359375 -0.5625 C 0.265625 -0.757812 0.21875 -0.988281 0.21875 -1.25 C 0.21875 -1.507812 0.265625 -1.734375 0.359375 -1.921875 C 0.460938 -2.117188 0.613281 -2.269531 0.8125 -2.375 C 1.007812 -2.488281 1.242188 -2.546875 1.515625 -2.546875 C 1.648438 -2.546875 1.78125 -2.53125 1.90625 -2.5 C 2.03125 -2.476562 2.148438 -2.441406 2.265625 -2.390625 L 2.140625 -2.140625 C 2.054688 -2.179688 1.957031 -2.21875 1.84375 -2.25 C 1.726562 -2.28125 1.613281 -2.296875 1.5 -2.296875 C 1.289062 -2.296875 1.113281 -2.25 0.96875 -2.15625 C 0.820312 -2.070312 0.707031 -1.953125 0.625 -1.796875 C 0.550781 -1.648438 0.515625 -1.46875 0.515625 -1.25 C 0.515625 -1.039062 0.546875 -0.859375 0.609375 -0.703125 C 0.679688 -0.546875 0.789062 -0.425781 0.9375 -0.34375 C 1.082031 -0.257812 1.265625 -0.21875 1.484375 -0.21875 C 1.597656 -0.21875 1.695312 -0.222656 1.78125 -0.234375 C 1.863281 -0.242188 1.9375 -0.257812 2 -0.28125 L 2 -1.046875 L 1.421875 -1.046875 Z M 1.421875 -1.3125 "/></g></g></g><g fill="#f6faff" fill-opacity="1"><g transform="translate(58.726682, 4.648184)"><g><path d="M 2.515625 -1.265625 C 2.515625 -1.066406 2.488281 -0.890625 2.4375 -0.734375 C 2.394531 -0.578125 2.320312 -0.441406 2.21875 -0.328125 C 2.125 -0.210938 2.003906 -0.125 1.859375 -0.0625 C 1.722656 0 1.5625 0.03125 1.375 0.03125 C 1.175781 0.03125 1.003906 0 0.859375 -0.0625 C 0.710938 -0.125 0.59375 -0.210938 0.5 -0.328125 C 0.40625 -0.441406 0.332031 -0.578125 0.28125 -0.734375 C 0.238281 -0.890625 0.21875 -1.066406 0.21875 -1.265625 C 0.21875 -1.515625 0.257812 -1.734375 0.34375 -1.921875 C 0.425781 -2.117188 0.550781 -2.269531 0.71875 -2.375 C 0.894531 -2.488281 1.113281 -2.546875 1.375 -2.546875 C 1.625 -2.546875 1.832031 -2.492188 2 -2.390625 C 2.164062 -2.285156 2.289062 -2.132812 2.375 -1.9375 C 2.46875 -1.75 2.515625 -1.523438 2.515625 -1.265625 Z M 0.515625 -1.265625 C 0.515625 -1.046875 0.546875 -0.859375 0.609375 -0.703125 C 0.671875 -0.546875 0.765625 -0.425781 0.890625 -0.34375 C 1.015625 -0.257812 1.175781 -0.21875 1.375 -0.21875 C 1.5625 -0.21875 1.71875 -0.257812 1.84375 -0.34375 C 1.96875 -0.425781 2.0625 -0.546875 2.125 -0.703125 C 2.1875 -0.859375 2.21875 -1.046875 2.21875 -1.265625 C 2.21875 -1.585938 2.148438 -1.835938 2.015625 -2.015625 C 1.878906 -2.203125 1.664062 -2.296875 1.375 -2.296875 C 1.175781 -2.296875 1.015625 -2.253906 0.890625 -2.171875 C 0.765625 -2.085938 0.671875 -1.96875 0.609375 -1.8125 C 0.546875 -1.65625 0.515625 -1.472656 0.515625 -1.265625 Z M 0.515625 -1.265625 "/></g></g></g><g fill="#f6faff" fill-opacity="1"><g transform="translate(63.095233, 4.648184)"><g/></g></g><g fill="#f6faff" fill-opacity="1"><g transform="translate(65.641314, 4.648184)"><g><path d="M 1 -2.515625 C 1.320312 -2.515625 1.554688 -2.445312 1.703125 -2.3125 C 1.859375 -2.1875 1.9375 -2.007812 1.9375 -1.78125 C 1.9375 -1.664062 1.914062 -1.5625 1.875 -1.46875 C 1.84375 -1.375 1.785156 -1.289062 1.703125 -1.21875 C 1.628906 -1.144531 1.53125 -1.085938 1.40625 -1.046875 C 1.28125 -1.003906 1.125 -0.984375 0.9375 -0.984375 L 0.640625 -0.984375 L 0.640625 0 L 0.34375 0 L 0.34375 -2.515625 Z M 0.96875 -2.265625 L 0.640625 -2.265625 L 0.640625 -1.234375 L 0.90625 -1.234375 C 1.0625 -1.234375 1.191406 -1.25 1.296875 -1.28125 C 1.410156 -1.320312 1.492188 -1.378906 1.546875 -1.453125 C 1.597656 -1.535156 1.625 -1.640625 1.625 -1.765625 C 1.625 -1.929688 1.570312 -2.054688 1.46875 -2.140625 C 1.363281 -2.222656 1.195312 -2.265625 0.96875 -2.265625 Z M 0.96875 -2.265625 "/></g></g></g><g fill="#f6faff" fill-opacity="1"><g transform="translate(69.389778, 4.648184)"><g><path d="M 1.921875 0 L 1.609375 -0.796875 L 0.609375 -0.796875 L 0.296875 0 L 0 0 L 0.984375 -2.515625 L 1.25 -2.515625 L 2.21875 0 Z M 1.515625 -1.0625 L 1.234375 -1.84375 C 1.222656 -1.863281 1.207031 -1.894531 1.1875 -1.9375 C 1.175781 -1.988281 1.160156 -2.039062 1.140625 -2.09375 C 1.128906 -2.144531 1.117188 -2.1875 1.109375 -2.21875 C 1.097656 -2.164062 1.082031 -2.113281 1.0625 -2.0625 C 1.050781 -2.019531 1.039062 -1.976562 1.03125 -1.9375 C 1.019531 -1.90625 1.007812 -1.875 1 -1.84375 L 0.703125 -1.0625 Z M 1.515625 -1.0625 "/></g></g></g><g fill="#f6faff" fill-opacity="1"><g transform="translate(73.246457, 4.648184)"><g><path d="M 1.421875 -1.3125 L 2.296875 -1.3125 L 2.296875 -0.09375 C 2.160156 -0.0507812 2.019531 -0.0195312 1.875 0 C 1.738281 0.0195312 1.585938 0.03125 1.421875 0.03125 C 1.160156 0.03125 0.941406 -0.0195312 0.765625 -0.125 C 0.585938 -0.226562 0.453125 -0.375 0.359375 -0.5625 C 0.265625 -0.757812 0.21875 -0.988281 0.21875 -1.25 C 0.21875 -1.507812 0.265625 -1.734375 0.359375 -1.921875 C 0.460938 -2.117188 0.613281 -2.269531 0.8125 -2.375 C 1.007812 -2.488281 1.242188 -2.546875 1.515625 -2.546875 C 1.648438 -2.546875 1.78125 -2.53125 1.90625 -2.5 C 2.03125 -2.476562 2.148438 -2.441406 2.265625 -2.390625 L 2.140625 -2.140625 C 2.054688 -2.179688 1.957031 -2.21875 1.84375 -2.25 C 1.726562 -2.28125 1.613281 -2.296875 1.5 -2.296875 C 1.289062 -2.296875 1.113281 -2.25 0.96875 -2.15625 C 0.820312 -2.070312 0.707031 -1.953125 0.625 -1.796875 C 0.550781 -1.648438 0.515625 -1.46875 0.515625 -1.25 C 0.515625 -1.039062 0.546875 -0.859375 0.609375 -0.703125 C 0.679688 -0.546875 0.789062 -0.425781 0.9375 -0.34375 C 1.082031 -0.257812 1.265625 -0.21875 1.484375 -0.21875 C 1.597656 -0.21875 1.695312 -0.222656 1.78125 -0.234375 C 1.863281 -0.242188 1.9375 -0.257812 2 -0.28125 L 2 -1.046875 L 1.421875 -1.046875 Z M 1.421875 -1.3125 "/></g></g></g><g fill="#f6faff" fill-opacity="1"><g transform="translate(77.436368, 4.648184)"><g><path d="M 2.515625 -1.265625 C 2.515625 -1.066406 2.488281 -0.890625 2.4375 -0.734375 C 2.394531 -0.578125 2.320312 -0.441406 2.21875 -0.328125 C 2.125 -0.210938 2.003906 -0.125 1.859375 -0.0625 C 1.722656 0 1.5625 0.03125 1.375 0.03125 C 1.175781 0.03125 1.003906 0 0.859375 -0.0625 C 0.710938 -0.125 0.59375 -0.210938 0.5 -0.328125 C 0.40625 -0.441406 0.332031 -0.578125 0.28125 -0.734375 C 0.238281 -0.890625 0.21875 -1.066406 0.21875 -1.265625 C 0.21875 -1.515625 0.257812 -1.734375 0.34375 -1.921875 C 0.425781 -2.117188 0.550781 -2.269531 0.71875 -2.375 C 0.894531 -2.488281 1.113281 -2.546875 1.375 -2.546875 C 1.625 -2.546875 1.832031 -2.492188 2 -2.390625 C 2.164062 -2.285156 2.289062 -2.132812 2.375 -1.9375 C 2.46875 -1.75 2.515625 -1.523438 2.515625 -1.265625 Z M 0.515625 -1.265625 C 0.515625 -1.046875 0.546875 -0.859375 0.609375 -0.703125 C 0.671875 -0.546875 0.765625 -0.425781 0.890625 -0.34375 C 1.015625 -0.257812 1.175781 -0.21875 1.375 -0.21875 C 1.5625 -0.21875 1.71875 -0.257812 1.84375 -0.34375 C 1.96875 -0.425781 2.0625 -0.546875 2.125 -0.703125 C 2.1875 -0.859375 2.21875 -1.046875 2.21875 -1.265625 C 2.21875 -1.585938 2.148438 -1.835938 2.015625 -2.015625 C 1.878906 -2.203125 1.664062 -2.296875 1.375 -2.296875 C 1.175781 -2.296875 1.015625 -2.253906 0.890625 -2.171875 C 0.765625 -2.085938 0.671875 -1.96875 0.609375 -1.8125 C 0.546875 -1.65625 0.515625 -1.472656 0.515625 -1.265625 Z M 0.515625 -1.265625 "/></g></g></g></g></g><g clip-path="url(#2a51a07dae)"><g clip-path="url(#421b97ecc0)"><g transform="matrix(1, 0, 0, 1, 2, 8)"><g clip-path="url(#0278fb482a)"><g clip-path="url(#949a7c6e6c)"><g clip-path="url(#122aba1568)"><path fill="#3974f5" d="M 0.175781 0.46875 L 20.246094 0.46875 L 20.246094 20.539062 L 0.175781 20.539062 Z M 0.175781 0.46875 " fill-opacity="1" fill-rule="nonzero"/></g></g></g></g></g></g><g clip-path="url(#33cc1e2be3)"><path fill="#f6faff" d="M 10.386719 17.046875 L 10.386719 23.054688 C 10.386719 23.304688 10.183594 23.503906 9.933594 23.503906 L 9.449219 23.503906 C 9.199219 23.503906 9 23.304688 9 23.054688 L 9 17.046875 C 9 16.800781 9.199219 16.597656 9.449219 16.597656 L 9.933594 16.597656 C 10.183594 16.597656 10.386719 16.800781 10.386719 17.046875 Z M 10.386719 17.046875 " fill-opacity="1" fill-rule="nonzero"/></g><g clip-path="url(#3bfc8e9f46)"><path fill="#f6faff" d="M 9.164062 13.902344 L 7.792969 16.28125 C 7.558594 16.6875 7.851562 17.191406 8.320312 17.191406 L 11.066406 17.191406 C 11.535156 17.191406 11.828125 16.6875 11.59375 16.28125 L 10.21875 13.902344 C 9.984375 13.496094 9.398438 13.496094 9.164062 13.902344 Z M 9.164062 13.902344 " fill-opacity="1" fill-rule="nonzero"/></g><g clip-path="url(#b738ffc681)"><path fill="#f6faff" d="M 15.285156 19.113281 L 15.285156 23.199219 C 15.285156 23.367188 15.148438 23.503906 14.976562 23.503906 L 14.648438 23.503906 C 14.476562 23.503906 14.339844 23.367188 14.339844 23.199219 L 14.339844 19.113281 C 14.339844 18.945312 14.476562 18.808594 14.648438 18.808594 L 14.976562 18.808594 C 15.148438 18.808594 15.285156 18.945312 15.285156 19.113281 Z M 15.285156 19.113281 " fill-opacity="1" fill-rule="nonzero"/></g><g clip-path="url(#72b2d67f6a)"><path fill="#f6faff" d="M 14.453125 16.972656 L 13.519531 18.589844 C 13.359375 18.867188 13.558594 19.210938 13.878906 19.210938 L 15.746094 19.210938 C 16.066406 19.210938 16.265625 18.867188 16.105469 18.589844 L 15.171875 16.972656 C 15.011719 16.699219 14.613281 16.699219 14.453125 16.972656 Z M 14.453125 16.972656 " fill-opacity="1" fill-rule="nonzero"/></g></svg>